<?xml version="1.0" encoding="utf-8"?>
<!-- Generator: Adobe Illustrator 23.0.0, SVG Export Plug-In . SVG Version: 6.00 Build 0)  -->
<svg version="1.1" id="Layer_1" xmlns="http://www.w3.org/2000/svg" xmlns:xlink="http://www.w3.org/1999/xlink" x="0px" y="0px"
	 viewBox="0 0 56.4 32.9" style="enable-background:new 0 0 56.4 32.9;" xml:space="preserve">
<style type="text/css">
	.st0{fill:#0073D0;}
	.st1{fill-rule:evenodd;clip-rule:evenodd;fill:#0073D0;}
</style>
<g>
	<path class="st0" d="M32.9,23.2h1.4c0.4,0,0.6-0.1,0.7-0.3c0.2-0.2,0.3-0.4,0.3-0.7c0-0.3-0.1-0.6-0.3-0.7
		c-0.2-0.2-0.5-0.2-0.9-0.2h-1.2V23.2L32.9,23.2z M31.5,20.9c0-0.6,0.3-0.9,0.9-0.9h2.1c0.7,0,1.3,0.2,1.7,0.5
		c0.4,0.4,0.6,0.9,0.6,1.6c0,1.2-0.7,2.1-2.1,2.1h-1.7v1.6c0,0.4-0.3,0.7-0.7,0.7c-0.4,0-0.7-0.3-0.7-0.7V20.9L31.5,20.9z"/>
	<path class="st0" d="M41.2,23.2h1.4c0.4,0,0.6-0.1,0.7-0.3c0.2-0.2,0.3-0.4,0.3-0.7c0-0.3-0.1-0.6-0.3-0.7
		c-0.2-0.2-0.5-0.2-0.9-0.2h-1.2V23.2L41.2,23.2z M39.8,20.9c0-0.6,0.3-0.9,0.9-0.9h2.1c0.7,0,1.3,0.2,1.7,0.5
		c0.4,0.4,0.6,0.9,0.6,1.6c0,1.2-0.7,2.1-2.1,2.1h-1.7v1.6c0,0.4-0.3,0.7-0.7,0.7c-0.4,0-0.7-0.3-0.7-0.7V20.9L39.8,20.9z"/>
	<path class="st0" d="M55.3,24.1c0.7-0.3,1.1-1.1,1.1-1.9c0-0.7-0.2-1.2-0.6-1.6c-0.4-0.4-1-0.5-1.7-0.5H52c-0.6,0-0.9,0.3-0.9,0.9
		v5c0,0.4,0.3,0.7,0.7,0.7c0.4,0,0.7-0.3,0.7-0.7v-1.6h1.4l1.1,1.9c0.2,0.3,0.3,0.4,0.7,0.4c0.3,0,0.7-0.2,0.7-0.7
		c0-0.1-0.1-0.3-0.1-0.4C56.1,25.5,55.6,24.7,55.3,24.1L55.3,24.1z M52.5,21.3h1.2c0.4,0,0.7,0.1,0.9,0.2c0.2,0.2,0.3,0.4,0.3,0.7
		c0,0.3-0.1,0.5-0.2,0.7c-0.2,0.2-0.4,0.3-0.8,0.3h-1.3V21.3L52.5,21.3z"/>
	<path class="st1" d="M15.8,20.8c-0.5-0.5-1.1-0.7-2-0.7h-1.8c-0.5,0-0.8,0.2-0.8,0.9v4.8c0,0.7,0.3,0.9,0.8,0.9h1.9
		c1.7,0,2.8-1.1,2.8-3.2C16.7,22.2,16.4,21.3,15.8,20.8L15.8,20.8z M14.7,25c-0.2,0.3-0.6,0.4-1.1,0.4h-1.1v-4.1h0.9
		c0.5,0,0.9,0.1,1.2,0.4c0.3,0.3,0.5,0.9,0.5,1.7C15.2,24.1,15,24.7,14.7,25L14.7,25z"/>
	<path class="st0" d="M27.8,25.5c-0.1-0.2-1.3-3.8-1.5-4.4c-0.1-0.4-0.2-0.6-0.4-0.7c-0.2-0.2-0.5-0.3-0.8-0.3
		c-0.3,0-0.6,0.1-0.8,0.3c-0.2,0.2-0.3,0.4-0.4,0.7c-0.2,0.5-1.6,4.3-1.6,4.4c-0.1,0.2-0.1,0.4-0.1,0.6c0,0.4,0.3,0.6,0.7,0.6
		c0.3,0,0.5-0.1,0.6-0.5c0.1-0.2,0.2-0.6,0.4-1.1h2.4c0.1,0.4,0.2,0.7,0.4,1.1c0.1,0.3,0.3,0.5,0.7,0.5c0.4,0,0.7-0.3,0.7-0.6
		C27.9,25.9,27.9,25.7,27.8,25.5L27.8,25.5z M24.3,24c0.3-0.8,0.6-1.7,0.8-2.4c0.2,0.6,0.5,1.4,0.8,2.4H24.3L24.3,24z"/>
	<path class="st0" d="M38.8,25.9c0,0.4-0.3,0.7-0.7,0.7c-0.4,0-0.7-0.3-0.7-0.7v-5.1c0-0.4,0.3-0.7,0.7-0.7c0.4,0,0.7,0.3,0.7,0.7
		V25.9L38.8,25.9z"/>
	<path class="st0" d="M18.2,26.6c-0.5,0-0.8-0.2-0.8-0.9v-4.9c0-0.4,0.3-0.7,0.7-0.7c0.4,0,0.7,0.3,0.7,0.7v4.6H21
		c0.3,0,0.5,0.1,0.6,0.2c0.1,0.1,0.1,0.2,0.1,0.4c0,0.2,0,0.3-0.1,0.4c-0.1,0.1-0.3,0.2-0.6,0.2H18.2L18.2,26.6z"/>
	<path class="st0" d="M46.5,26.6c-0.5,0-0.8-0.2-0.8-0.9v-4.8c0-0.7,0.3-0.9,0.9-0.9h3.1c0.3,0,0.5,0.1,0.6,0.2
		c0.1,0.1,0.1,0.2,0.1,0.4c0,0.2,0,0.3-0.1,0.4c-0.1,0.1-0.3,0.2-0.6,0.2h-2.5v1.4h2.1c0.3,0,0.5,0.1,0.6,0.2C50,23,50,23.2,50,23.3
		c0,0.2,0,0.3-0.1,0.4c-0.1,0.1-0.3,0.2-0.6,0.2h-2.1v1.4h2.5c0.3,0,0.5,0.1,0.6,0.2c0.1,0.1,0.1,0.2,0.1,0.4c0,0.2,0,0.3-0.1,0.4
		c-0.1,0.1-0.3,0.2-0.6,0.2H46.5L46.5,26.6z"/>
	<path class="st0" d="M5.2,32.9c-1.2,0-2-0.2-2.7-0.6c-0.8-0.5-1.5-1.2-1.9-2C0.1,29.4,0,28.5,0,27.4V5.5c0-1.2,0.1-2.1,0.6-2.9
		c0.4-0.8,1.1-1.5,1.9-2C3.2,0.2,4,0,5.2,0h22.4c1.2,0,2,0.2,2.7,0.6c0.8,0.5,1.5,1.2,1.9,2c0.4,0.8,0.6,1.7,0.6,2.9v11
		c0,0.5-0.3,0.7-0.7,0.7c-0.4,0-0.7-0.2-0.8-0.7c-0.4-3.4-1.6-6-3.7-8.2C25.4,6,22,4.5,18,4.5c-8,0-13.5,6-13.5,13.5
		c0,3.8,1.4,7.2,3.8,9.6c2.1,2.1,4.8,3.4,8.1,3.8c0.7,0.1,0.9,0.3,0.9,0.8c0,0.2-0.1,0.4-0.2,0.5c-0.1,0.1-0.4,0.2-0.7,0.2H5.2
		L5.2,32.9z"/>
</g>
</svg>
