<?xml version="1.0" encoding="UTF-8"?>
<svg xmlns="http://www.w3.org/2000/svg" xmlns:xlink="http://www.w3.org/1999/xlink" width="400pt" height="400pt" viewBox="0 0 400 400" version="1.1">
<g id="surface1">
<path style=" stroke:none;fill-rule:nonzero;fill:rgb(0%,49.01886%,76.077271%);fill-opacity:1;" d="M 291.4375 340.421875 C 291.4375 320.53125 301.085938 311.902344 320.253906 311.902344 L 390.371094 311.902344 C 413.574219 311.902344 432.785156 317.042969 446.242188 329.554688 C 458.925781 341.351563 466.492188 359.078125 466.492188 382.804688 C 466.492188 421.742188 442.808594 453.734375 395.5625 453.734375 L 339.671875 453.734375 L 339.671875 505.691406 C 339.671875 520.238281 330.414063 530.054688 315.589844 530.054688 C 300.726563 530.054688 291.4375 520.238281 291.4375 505.691406 Z M 339.671875 414.917969 L 385.429688 414.917969 C 397.238281 414.917969 404.089844 411.820313 409.214844 406.574219 C 414.816406 400.824219 417.769531 392.511719 417.769531 382.871094 C 417.769531 372.238281 414.953125 364.234375 409.164063 358.878906 C 402.234375 352.476563 393.167969 350.773438 379.914063 350.773438 L 339.671875 350.773438 "/>
<path style=" stroke:none;fill-rule:nonzero;fill:rgb(0%,49.01886%,76.077271%);fill-opacity:1;" d="M 52.507813 441.222656 C 62 413.507813 72.136719 383.847656 79.28125 362.882813 C 85.945313 382.523438 95.390625 410.332031 105.867188 441.222656 Z M 170.234375 490.160156 C 167.886719 483.296875 126.359375 364.789063 119.726563 345.753906 C 115.597656 333.894531 111.839844 326.886719 106.691406 321.632813 C 99.375 314.164063 90.066406 311.886719 80.835938 311.886719 C 69.832031 311.886719 61.4375 315.484375 55.101563 321.394531 C 49.28125 326.824219 45.363281 334.53125 42.1875 343.460938 C 36.089844 360.578125 -9.605469 484.824219 -11.570313 490.160156 C -13.875 496.425781 -16.214844 503.570313 -16.214844 508.605469 C -16.214844 521.445313 -7.050781 529.609375 6.117188 529.609375 C 16.703125 529.609375 23.800781 524.910156 27.300781 514.65625 C 29.113281 509.433594 33.707031 496.058594 39.609375 478.859375 L 118.632813 478.859375 C 122.582031 490.527344 126.578125 502.332031 130.535156 514.046875 C 133.871094 523.027344 139.832031 529.609375 152.355469 529.609375 C 164.601563 529.609375 174.933594 520.265625 174.933594 508.605469 C 174.933594 503.296875 172.585938 497.027344 170.234375 490.160156 "/>
<path style=" stroke:none;fill-rule:nonzero;fill:rgb(0%,49.01886%,76.077271%);fill-opacity:1;" d="M -577.488281 736 C -617.738281 736 -644.621094 728.246094 -668.476563 714.664063 C -695.644531 699.207031 -718.007813 676.144531 -732.617188 648.449219 C -747.234375 620.734375 -751.375 590.976563 -751.375 552.757813 L -751.375 -170.757813 C -751.375 -208.976563 -747.234375 -238.738281 -732.617188 -266.453125 C -718.007813 -294.148438 -695.644531 -317.207031 -668.476563 -332.664063 C -644.621094 -346.242188 -617.738281 -353.996094 -577.488281 -354 L 165.785156 -354 C 206.023438 -353.996094 232.917969 -346.242188 256.773438 -332.664063 C 283.9375 -317.207031 306.304688 -294.148438 320.914063 -266.453125 C 335.535156 -238.738281 339.671875 -208.976563 339.671875 -170.757813 L 339.671875 194.433594 C 339.671875 210.46875 330.757813 218.785156 315.9375 218.785156 C 301.152344 218.785156 293.167969 210.621094 291.023438 194.433594 C 276.285156 82.976563 237.007813 -6.039063 167.609375 -76.441406 C 89.03125 -156.152344 -22.207031 -205.054688 -154.203125 -205.054688 C -420.1875 -205.054688 -601.902344 -6.507813 -601.902344 242.648438 C -601.902344 368.222656 -555.742188 480.929688 -475.898438 561.851563 C -407.785156 630.878906 -317.285156 675.472656 -205.765625 687.621094 C -183.839844 690.011719 -176.679688 698.554688 -176.679688 712.804688 C -176.679688 719.558594 -178.816406 725.269531 -182.949219 729.304688 C -187.359375 733.605469 -194.636719 735.992188 -204.710938 735.992188 "/>
</g>
</svg>
