<svg
  id="Layer_1"
  data-name="Layer 1"
  xmlns="http://www.w3.org/2000/svg"
  xmlns:xlink="http://www.w3.org/1999/xlink"
  viewBox="0 0 198.43 48.73"
>
  <defs>
    <clipPath id="clip-path" transform="translate(-19.31 -18.73)">
      <rect x="19.31" y="18.73" width="198.43" height="48.73" style="fill: none" />
    </clipPath>
  </defs>
  <g>
    <polygon
      points="2.85 17.19 2.85 10.71 9.32 10.71 10.05 8.69 2.85 8.69 2.85 2.34 10.9 2.34 11.63 0.32 0.64 0.32 0.64 19.21 11.37 19.21 12.11 17.19 2.85 17.19"
      style="fill: #d3dce6"
    />
    <g style="clip-path: url(#clip-path)">
      <path
        d="M48,33.23c-.2.56-.41,1.29-.55,1.81-.14-.52-.36-1.25-.56-1.81L41.74,19.05H39.38l7,18.77,0,.12h2.17l7-18.89H53.21Z"
        transform="translate(-19.31 -18.73)"
        style="fill: #d3dce6"
      />
      <polygon
        points="57.11 17.19 47.85 17.19 47.85 10.71 54.32 10.71 55.06 8.69 47.85 8.69 47.85 2.34 55.9 2.34 56.64 0.32 45.65 0.32 45.65 19.21 56.38 19.21 57.11 17.19"
        style="fill: #d3dce6"
      />
      <path
        d="M89,30.15h4.35l4.19,7.79h2.52L95.92,30.2l-.36-.57A5.18,5.18,0,0,0,99,24.51a5.15,5.15,0,0,0-2.91-5,8.36,8.36,0,0,0-3.55-.51H86.84V37.94H89Zm7.67-5.59a3.27,3.27,0,0,1-3.46,3.57H89V21.07h3.55a5.12,5.12,0,0,1,2.54.42,3.27,3.27,0,0,1,1.58,3.07"
        transform="translate(-19.31 -18.73)"
        style="fill: #d3dce6"
      />
      <polygon
        points="124.49 8.74 114.14 8.74 114.14 0.32 111.93 0.32 111.93 19.21 114.14 19.21 114.14 10.76 124.49 10.76 124.49 19.21 126.69 19.21 126.69 0.32 124.49 0.32 124.49 8.74"
        style="fill: #d3dce6"
      />
      <polygon
        points="140.73 10.71 147.2 10.71 147.94 8.69 140.73 8.69 140.73 2.34 148.78 2.34 149.52 0.32 138.53 0.32 138.53 19.21 149.25 19.21 149.99 17.19 140.73 17.19 140.73 10.71"
        style="fill: #d3dce6"
      />
      <path
        d="M185.68,19.05h-6.17V37.94h6.17c5.85,0,9.49-3.62,9.49-9.46s-3.64-9.43-9.49-9.43m-4,2h3.78c4.62,0,7.38,2.77,7.38,7.41s-2.76,7.44-7.38,7.44h-3.78Z"
        transform="translate(-19.31 -18.73)"
        style="fill: #d3dce6"
      />
      <path
        d="M50,60.42c0,3.06-1.58,5-4.71,5s-4.68-1.88-4.68-4.91V48.25H38.42V60.5c0,4.16,2.57,7,6.94,7s6.89-2.8,6.89-7V48.25H50Z"
        transform="translate(-19.31 -18.73)"
        style="fill: #d3dce6"
      />
      <polygon
        points="40.09 31.54 46.03 31.54 46.03 48.41 48.23 48.41 48.23 31.54 54.15 31.54 54.15 29.52 40.09 29.52 40.09 31.54"
        style="fill: #d3dce6"
      />
      <polygon
        points="73.37 37.94 63.38 37.94 63.38 29.52 61.17 29.52 61.17 48.41 63.38 48.41 63.38 39.97 73.37 39.97 73.37 48.41 75.57 48.41 75.57 29.52 73.37 29.52 73.37 37.94"
        style="fill: #d3dce6"
      />
      <polygon
        points="85.5 39.91 91.61 39.91 92.35 37.89 85.5 37.89 85.5 31.54 93.19 31.54 93.93 29.52 83.3 29.52 83.3 48.41 93.67 48.41 94.41 46.39 85.5 46.39 85.5 39.91"
        style="fill: #d3dce6"
      />
      <path
        d="M130,58.83a5.16,5.16,0,0,0,3.41-5.12,5.13,5.13,0,0,0-2.91-4.94,8.32,8.32,0,0,0-3.55-.52H121.3v18.9h2.2v-7.8h4.35l4.19,7.8h2.52l-4.18-7.75-.36-.57m1.15-5.07a3.27,3.27,0,0,1-3.47,3.57H121v-7.8h3.55a5,5,0,0,1,2.54.43,3.24,3.24,0,0,1,1.58,3.06"
        transform="translate(-19.31 -18.73)"
        style="fill: #d3dce6"
      />
      <polygon
        points="124.19 29.52 121.98 29.52 121.98 48.41 131.87 48.41 132.61 46.39 124.19 46.39 124.19 29.52"
        style="fill: #d3dce6"
      />
      <path
        d="M163.8,48.25l-6.94,18.9h2.34l2.11-5.9h7.17l2.13,5.9H173L166,48.25Zm4,11H162l2.37-6.45c.2-.53.41-1.28.56-1.81.14.53.36,1.28.55,1.81Z"
        transform="translate(-19.31 -18.73)"
        style="fill: #d3dce6"
      />
      <path
        d="M191.79,61.77c0,.53,0,1.22.08,1.74-.32-.54-.78-1.32-1.15-1.86l-9.09-13.32-.06-.08h-2.06v18.9h2.21V53.63c0-.53-.05-1.22-.09-1.74.32.54.78,1.31,1.15,1.85l9.09,13.32.06.09H194V48.25h-2.2Z"
        transform="translate(-19.31 -18.73)"
        style="fill: #d3dce6"
      />
      <path
        d="M208.25,48.25h-6.17v18.9h6.17c5.85,0,9.48-3.63,9.48-9.47s-3.63-9.43-9.48-9.43m-4,2h3.78c4.63,0,7.39,2.77,7.39,7.41s-2.76,7.44-7.39,7.44h-3.78Z"
        transform="translate(-19.31 -18.73)"
        style="fill: #d3dce6"
      />
      <path
        d="M115.42,27.41c-2.11-.9-3.94-1.67-3.94-3.56,0-1.47,1.39-3,3.7-3a6.23,6.23,0,0,1,3.92,1.52l.17.17.79-2.16a7.52,7.52,0,0,0-4.88-1.66c-3.34,0-6,2.27-6,5.17,0,3.15,2.71,4.32,5.1,5.35,2.13.92,4.14,1.78,4.14,3.86,0,1.78-1.43,3-3.49,3a7.07,7.07,0,0,1-4.7-2l-.15-.16-.81,2.22a8.47,8.47,0,0,0,5.61,2c3.42,0,5.8-2.14,5.8-5.2,0-3.41-2.81-4.6-5.3-5.65"
        transform="translate(-19.31 -18.73)"
        style="fill: #d3dce6"
      />
      <path
        d="M211.26,27.41c-2.12-.9-3.94-1.67-3.94-3.56,0-1.47,1.38-3,3.7-3a6.15,6.15,0,0,1,3.91,1.52l.18.17.78-2.16A7.46,7.46,0,0,0,211,18.73c-3.35,0-6,2.27-6,5.17,0,3.15,2.7,4.32,5.09,5.35,2.13.92,4.15,1.78,4.15,3.86,0,1.78-1.44,3-3.49,3a7.11,7.11,0,0,1-4.71-2L206,34l-.81,2.22a8.51,8.51,0,0,0,5.61,2c3.41,0,5.8-2.14,5.8-5.2,0-3.41-2.81-4.6-5.29-5.65"
        transform="translate(-19.31 -18.73)"
        style="fill: #d3dce6"
      />
      <path
        d="M25.51,56.61c-2.12-.89-3.94-1.67-3.94-3.56,0-1.47,1.38-3,3.7-3a6.15,6.15,0,0,1,3.92,1.53l.17.17.79-2.17a7.58,7.58,0,0,0-4.88-1.66c-3.34,0-6,2.28-6,5.18,0,3.14,2.71,4.31,5.1,5.34,2.13.92,4.14,1.79,4.14,3.87,0,1.77-1.44,3-3.49,3a7.05,7.05,0,0,1-4.7-2l-.16-.17-.81,2.22a8.5,8.5,0,0,0,5.62,2c3.41,0,5.8-2.13,5.8-5.19,0-3.42-2.82-4.61-5.3-5.66"
        transform="translate(-19.31 -18.73)"
        style="fill: #d3dce6"
      />
    </g>
  </g>
</svg>
